<svg width="107" height="19" viewBox="0 0 107 19" fill="none" xmlns="http://www.w3.org/2000/svg">
<path fill-rule="evenodd" clip-rule="evenodd" d="M9.72181 8.46832C9.71307 8.21842 9.96529 8.01452 10.2063 8.06923C10.3673 8.10404 10.5559 8.29177 10.5222 8.4708L10.4185 8.73313C10.3548 8.84254 10.1825 8.85373 10.0664 8.85373C9.90785 8.85373 9.7293 8.66724 9.72181 8.46832ZM11.29 10.184C11.1802 10.1181 11.1702 9.9478 11.1702 9.83093C11.1702 9.58974 11.5685 9.34855 11.8394 9.60093C11.8744 9.63325 11.8856 9.66309 11.9193 9.71407C12.0055 9.84212 11.9493 10.0808 11.8369 10.1815C11.777 10.235 11.7046 10.2847 11.591 10.2847C11.5135 10.2847 11.355 10.2226 11.29 10.184ZM8.29592 9.81353C8.29592 9.73396 8.38332 9.62704 8.43076 9.58104C8.48196 9.53255 8.47197 9.54374 8.54688 9.5226C8.92396 9.41444 9.08503 9.73272 9.08503 9.79612C9.08503 9.96521 9.10001 10.0721 8.9327 10.2039C8.8016 10.3096 8.68548 10.3046 8.53315 10.2586C8.45199 10.235 8.47571 10.2499 8.42202 10.1952C8.27719 10.0473 8.29592 9.9851 8.29592 9.81353ZM9.65813 10.3767C9.48957 10.2101 9.45336 10.0933 9.45336 9.84834C9.45336 9.74266 9.48832 9.65812 9.52203 9.58725C9.57198 9.48655 9.58321 9.48406 9.65813 9.40822C9.77924 9.28763 9.95654 9.20184 10.1363 9.22049C10.451 9.25406 10.6058 9.35974 10.7519 9.61958C10.8318 9.76255 10.7918 10.0448 10.7432 10.1741C10.6607 10.3842 10.3673 10.5893 10.1189 10.5645C9.93781 10.5471 9.78798 10.506 9.65813 10.3767ZM7.2421 7.00126C7.22462 7.28846 7.19091 7.5396 7.07479 7.79571C7.03359 7.88647 7.05107 7.88274 6.97241 8.02447C6.95243 8.06053 6.96367 8.03815 6.94494 8.06674C6.8463 8.21345 6.85753 8.21096 6.75016 8.34523C6.56412 8.58021 6.24572 8.82762 5.96978 8.94698C5.73255 9.04892 5.42165 9.13346 5.08828 9.13346L4.19553 8.94076C4.07442 8.90222 3.81346 8.71946 3.70109 8.62994C3.6012 8.54913 3.39394 8.31415 3.32401 8.2035C3.22038 8.03939 3.16419 7.96604 3.09677 7.76587C3.07305 7.69376 3.0718 7.72733 3.05057 7.67263C2.98689 7.50479 2.95068 7.20143 2.95068 6.98634C2.95068 6.83715 2.96192 6.61585 3.00812 6.50396C3.04433 6.41941 3.0256 6.36844 3.06181 6.29509C3.09178 6.23665 3.08179 6.27644 3.10426 6.19811C3.13298 6.10114 3.19416 6.00914 3.23911 5.92957C3.33525 5.758 3.31777 5.78783 3.45262 5.61999C3.50381 5.55783 3.52129 5.5367 3.57748 5.48199C3.68985 5.3701 3.8247 5.26691 3.95705 5.17988C4.2205 5.00707 4.76864 4.84668 5.08828 4.85787C5.35673 4.86658 5.74004 4.9362 5.97728 5.05555C6.11462 5.12393 6.19953 5.16745 6.32314 5.25199C6.669 5.48945 7.02984 5.93703 7.12848 6.33363C7.15096 6.4219 7.17842 6.4592 7.18966 6.53504L7.2421 7.00126ZM1.33001 8.89848C1.2988 9.05141 1.28506 9.19935 1.28506 9.37839C1.28506 9.75509 1.24885 10.5234 1.32751 10.8715C1.36122 11.0232 1.35248 11.1973 1.3862 11.3365C1.41242 11.4434 1.41741 11.4248 1.4274 11.5578C1.43364 11.6461 1.45487 11.6996 1.47859 11.7679C1.50731 11.8475 1.5198 11.9805 1.55351 12.0775L1.75828 12.7812L1.97928 13.3469C2.09914 13.6316 2.3189 14.1314 2.49994 14.3813C2.63354 14.5678 2.76964 14.8226 2.91323 15.0178L3.07804 15.2366C3.09927 15.264 3.11925 15.2864 3.14047 15.3137C3.42265 15.6656 3.72357 15.9839 4.04321 16.2996L4.06069 16.317L4.06943 16.327L4.27794 16.5197C4.43651 16.6589 4.60507 16.8069 4.78112 16.9275C4.82358 16.9561 4.82358 16.9486 4.86478 16.9822L5.17193 17.1998C5.41541 17.3925 5.71757 17.5466 5.98976 17.6958C6.45674 17.9507 6.96242 18.1347 7.4656 18.3025C7.53677 18.3262 7.60045 18.3361 7.67037 18.361L7.88013 18.4144C7.96379 18.4343 7.98751 18.4555 8.0849 18.4704C8.17605 18.4853 8.22349 18.4977 8.29841 18.5214L8.73916 18.6059C8.82407 18.6183 8.89649 18.6233 8.9789 18.6283C9.06505 18.6332 9.11874 18.6519 9.20614 18.6631C9.63316 18.7078 10.6508 18.7315 11.0478 18.6631L11.516 18.6059C11.5897 18.596 11.6372 18.5686 11.7296 18.5562C11.9093 18.5325 12.003 18.4977 12.1703 18.4704L13.1942 18.1633C13.4801 18.0539 13.756 17.9408 14.0307 17.8102L14.5464 17.5392C14.5863 17.5143 14.5976 17.5118 14.635 17.4882C14.9796 17.2632 15.338 17.0568 15.6489 16.787L15.7912 16.6664C15.9573 16.5234 16.1283 16.3854 16.2844 16.2325L16.6777 15.8222C16.9424 15.5562 17.2845 15.1123 17.4968 14.7878C17.5343 14.7306 17.5592 14.6834 17.6004 14.6287C17.6391 14.5752 17.6679 14.5292 17.7016 14.4671C17.8015 14.2856 17.9138 14.1177 18.0037 13.93C18.03 13.8753 18.0025 13.9275 18.0287 13.8852C18.1136 13.7472 18.1735 13.5682 18.2447 13.4202C18.2759 13.3568 18.2984 13.3046 18.3259 13.24C18.3546 13.1741 18.3696 13.1144 18.397 13.0473C18.4982 12.7911 18.5743 12.5151 18.6592 12.2628C18.7379 12.0265 18.8553 11.3887 18.8902 11.1475C18.9739 10.5582 18.9701 10.1877 18.9701 9.58725C18.9701 9.2553 18.9327 8.94946 18.8877 8.62123C18.859 8.4161 18.7741 7.92998 18.7129 7.74846L18.6018 7.3357C18.5681 7.20391 18.5169 7.07585 18.472 6.94034C18.447 6.86326 18.4308 6.82223 18.402 6.75012C18.3733 6.67925 18.3608 6.62828 18.3321 6.55741L18.0424 5.92086C18.0262 5.89227 18.0362 5.91589 18.015 5.87735L17.9026 5.65853C17.8839 5.62745 17.9001 5.65853 17.8814 5.62745L17.8589 5.58021C17.7578 5.38004 17.6229 5.20101 17.503 5.0083C17.4731 4.95982 17.4718 4.96852 17.4431 4.92998C17.2933 4.72981 17.1634 4.51473 16.9949 4.32824C16.8026 4.11564 16.6278 3.89558 16.4243 3.69293L16.2932 3.56114C16.1059 3.37589 15.9048 3.21676 15.7038 3.04892L15.6851 3.03151C15.4841 2.85248 15.0508 2.54788 14.8111 2.40242L14.6138 2.28431C14.5951 2.27312 14.5863 2.26939 14.5689 2.25944L13.9508 1.93122C13.585 1.74846 13.1991 1.63159 12.8133 1.49359C12.6735 1.44386 12.5374 1.40656 12.3901 1.37424C12.189 1.33072 11.9668 1.2524 11.747 1.22877C11.581 1.21137 11.4836 1.16537 11.2925 1.15791C11.1902 1.15418 11.1465 1.13926 11.0628 1.12434C10.682 1.07834 9.59446 1.0572 9.23487 1.11439L8.32464 1.25613C8.24598 1.27478 8.19978 1.2984 8.11613 1.30959L7.69535 1.41402C7.62418 1.44137 7.56425 1.45132 7.49183 1.4737C7.04733 1.61543 6.60283 1.77706 6.18705 1.98965L6.01225 2.07668C5.96855 2.1003 5.97729 2.09782 5.93234 2.11895C5.66264 2.24825 5.10702 2.60258 4.88352 2.78659C4.82484 2.83507 4.79112 2.84875 4.73244 2.89724L4.44277 3.13221C4.30917 3.23913 4.17307 3.356 4.05196 3.4766L4.04322 3.4853L3.58373 3.95153L3.57499 3.96023L3.51631 4.02364C3.46262 4.07958 3.44139 4.10818 3.3927 4.16288C3.2129 4.36802 2.97067 4.66889 2.82209 4.90387L2.41505 5.54539C2.17907 5.93826 2.00177 6.36222 1.8382 6.78741C1.70835 7.12682 1.65466 7.33818 1.56101 7.68008C1.54978 7.72235 1.53854 7.73105 1.5248 7.78327C1.50233 7.85911 1.50732 7.93122 1.4836 8.00333C1.45613 8.08538 1.44115 8.12144 1.42991 8.21344C1.42492 8.25322 1.42741 8.28679 1.42117 8.32657C1.41618 8.3589 1.40119 8.39495 1.38995 8.43474C1.35125 8.5802 1.36372 8.74183 1.33001 8.89848ZM14.2854 10.838C14.5226 10.736 14.8335 10.6515 15.1669 10.6515C15.7987 10.6938 16.2981 10.9151 16.6877 11.2843C16.7351 11.3166 16.9499 11.5989 16.9886 11.6648L17.121 11.9171C17.1397 11.9557 17.1422 11.9793 17.1584 12.0191C17.1821 12.085 17.1821 12.0601 17.2021 12.1148C17.2308 12.1969 17.2883 12.4542 17.287 12.5537C17.2845 12.7775 17.3145 12.5984 17.2883 12.9217C17.2845 12.9664 17.2895 13.0149 17.2883 13.0609C17.2858 13.1343 17.2071 13.4476 17.1884 13.4849C17.1647 13.5346 17.1634 13.5284 17.1472 13.5844C17.1347 13.6254 17.1334 13.6366 17.1147 13.6739L17.0161 13.8554C16.885 14.0891 16.7426 14.2619 16.5291 14.4347C16.4817 14.4733 16.4342 14.518 16.3818 14.5491C16.3206 14.5864 16.2769 14.6187 16.2182 14.6486C16.0159 14.753 15.8486 14.8226 15.6276 14.8624C15.4728 14.8898 15.4116 14.9271 15.1669 14.9271C15.0695 14.9271 15.0071 14.9159 14.9047 14.9097C14.821 14.9035 14.7649 14.8711 14.6912 14.8599C14.6363 14.8525 14.6113 14.8525 14.5701 14.8413C14.5176 14.8264 14.5176 14.8189 14.4702 14.8003C14.389 14.7692 14.3578 14.7692 14.2779 14.7294C14.1493 14.6648 14.0469 14.6125 13.9295 14.5355C13.6561 14.3552 13.3302 13.9735 13.2004 13.6565C13.0031 13.1741 12.9544 12.6967 13.1042 12.1944L13.2104 11.8985C13.2516 11.8027 13.3527 11.6411 13.4101 11.5553C13.5025 11.4198 13.6324 11.2943 13.7535 11.1824L13.9495 11.0282C14.0631 10.9548 14.1555 10.8939 14.2854 10.838ZM14.2604 8.93578C13.9083 8.77167 13.7547 8.60756 13.5013 8.34896C13.4076 8.25323 13.304 8.06674 13.2403 7.9449C13.1329 7.73479 13.0555 7.46997 13.0306 7.22878C13.0118 7.0398 13.0093 6.90926 13.0356 6.73147C13.0805 6.4219 13.1192 6.29508 13.2603 6.01411C13.2853 5.96562 13.2803 5.96438 13.309 5.9221C13.4538 5.69583 13.4451 5.69086 13.6549 5.48199C13.9183 5.21842 14.012 5.19852 14.2929 5.05182C14.419 4.98593 14.5638 4.94738 14.7062 4.92252C14.8273 4.90138 14.9684 4.85041 15.1669 4.85787C15.5115 4.86906 15.4566 4.89641 15.6426 4.92501C15.765 4.94365 15.8586 4.97474 15.971 5.01701C16.1845 5.09658 16.3718 5.22712 16.5491 5.36636C16.6902 5.47702 16.9037 5.7207 16.9886 5.87113L17.0298 5.95194C17.096 6.05389 17.1522 6.20308 17.1996 6.32368C17.2583 6.46914 17.3095 6.84461 17.3058 7.00375C17.3033 7.08332 17.2883 7.08083 17.2883 7.26732C17.2883 7.34813 17.2009 7.67387 17.1846 7.70495C17.1022 7.86284 17.0798 7.99214 16.9599 8.16123L16.7938 8.38129C16.6927 8.5081 16.5054 8.67345 16.3731 8.76421C16.0372 8.99173 15.6014 9.13346 15.1494 9.13346C14.831 9.13346 14.4839 9.03897 14.2617 8.93578L14.2604 8.93578ZM9.72179 11.3303C9.71305 11.0916 9.94653 10.8877 10.1888 10.9312C10.5171 10.9884 10.6145 11.3651 10.4247 11.5852C10.3099 11.7194 10.22 11.7157 10.0489 11.7157C9.98649 11.7157 9.96152 11.6884 9.91407 11.6585C9.80419 11.5939 9.72678 11.4584 9.72179 11.3303ZM3.87213 11.0282C4.15556 10.8131 4.76363 10.6167 5.08826 10.6515L5.98225 10.8442C6.13083 10.8927 6.35058 11.0568 6.4692 11.1625L6.81381 11.5168L6.8213 11.5267C6.8238 11.5305 6.83254 11.5429 6.83504 11.5479C6.84378 11.5616 6.84378 11.5653 6.85377 11.5814C6.88748 11.6399 6.93243 11.6933 6.96614 11.7493C7.04106 11.8761 7.17091 12.213 7.18964 12.3299C7.24208 12.6631 7.25831 12.9515 7.18464 13.2797C7.14844 13.4401 7.03232 13.7124 6.94367 13.8591C6.90246 13.9287 6.88748 13.9598 6.84128 14.0195C6.52289 14.4385 6.37431 14.518 5.96227 14.7331C5.88361 14.7754 5.84241 14.7766 5.76 14.8114C5.7113 14.8326 5.38417 14.9072 5.33423 14.9097C5.22935 14.9146 5.19064 14.9271 5.08825 14.9271C4.86226 14.9196 4.59881 14.8798 4.39279 14.8003C4.04318 14.6672 3.84216 14.5665 3.56872 14.2955C3.51003 14.2383 3.48756 14.2085 3.43761 14.1463C3.34896 14.0381 3.30526 13.9834 3.24533 13.8666C3.17915 13.741 3.09924 13.5968 3.05055 13.4662C3.02058 13.3854 3.06303 13.4128 2.99686 13.2574C2.95566 13.1604 2.95066 12.918 2.95066 12.7812C2.95066 12.6668 2.96315 12.6071 2.96689 12.5189C2.97189 12.4206 3.02558 12.1621 3.06179 12.0899C3.093 12.0303 3.08176 12.07 3.10424 11.9917C3.12172 11.9308 3.10923 11.9569 3.1392 11.9047C3.38892 11.4708 3.4139 11.3738 3.87213 11.0282ZM8.658 5.64982C8.51441 5.50685 8.34335 5.31414 8.24471 5.13511C8.22348 5.09906 8.22473 5.0829 8.20101 5.03938C8.04494 4.75965 7.98126 4.40904 7.98126 4.08953C7.98126 3.9826 8.00498 3.67303 8.0337 3.60092C8.05368 3.54995 8.05492 3.56984 8.06991 3.49773C8.10237 3.34978 8.19602 3.15583 8.27717 3.02405C8.29715 2.99172 8.30589 2.9681 8.32837 2.93453C8.56935 2.58517 8.88274 2.31912 9.26606 2.14009L9.46584 2.06052C9.61941 2.00581 9.97651 1.9536 10.1538 1.95981C10.3423 1.96727 10.6657 2.00457 10.8268 2.07668C11.0054 2.15625 11.0391 2.15998 11.2313 2.2669C11.2676 2.28679 11.2451 2.2756 11.2738 2.29425L11.4936 2.45961C11.8806 2.77913 12.1903 3.28762 12.2427 3.7899C12.2827 4.17034 12.2527 4.67884 12.0617 5.01203L11.9693 5.18111C11.9106 5.27809 11.8856 5.3303 11.8069 5.42106L11.7508 5.48696C11.6534 5.60258 11.4673 5.77415 11.3462 5.85248C11.2601 5.90842 11.1165 5.99794 11.0228 6.03772L10.6383 6.17697L10.1888 6.23664C9.88536 6.23664 9.48206 6.16702 9.20862 6.02529L9.0051 5.91464C8.874 5.83507 8.76912 5.75923 8.658 5.64982ZM8.25844 14.6274C8.40328 14.4124 8.52689 14.2308 8.73915 14.0605C8.90272 13.93 9.21362 13.7261 9.40465 13.6751C9.64938 13.6105 9.52077 13.6192 9.83542 13.5806C9.91783 13.5707 9.96277 13.5483 10.0664 13.5483C10.1825 13.5483 10.5571 13.5843 10.652 13.6117C10.7219 13.6316 10.6832 13.6328 10.7494 13.654C10.858 13.6875 10.7781 13.639 10.9342 13.7149C11.3237 13.9039 11.4037 13.925 11.7595 14.3067C11.8094 14.3589 11.8357 14.3937 11.8756 14.4534C11.9143 14.5106 11.943 14.5541 11.978 14.6125C12.1129 14.8351 12.2152 15.1185 12.2427 15.3784C12.2677 15.6146 12.2589 15.7712 12.2415 16.0112C12.2277 16.1977 12.1079 16.5321 12.0105 16.7062C11.8931 16.92 11.6659 17.1873 11.4736 17.3415C11.4249 17.38 11.3737 17.4273 11.3275 17.4571C11.1552 17.5703 10.9916 17.6448 10.8018 17.7194C10.6682 17.7742 10.2962 17.8301 10.1363 17.8251C9.70182 17.8102 9.43837 17.7493 9.0588 17.5367L8.97139 17.4832C8.83655 17.3962 8.73041 17.3054 8.61554 17.1923C8.42826 17.0046 8.38456 16.9213 8.25595 16.7298L8.16605 16.5582C8.08739 16.373 8.10487 16.3854 8.05992 16.2449C8.04619 16.2039 8.0337 16.1977 8.02371 16.1591C7.99999 16.0721 7.98126 15.7824 7.98126 15.678C7.98126 15.5698 8.00623 15.2628 8.03245 15.1882C8.08739 15.034 8.1598 14.7754 8.25844 14.6274Z" fill="#E6E7E8"/>
<path fill-rule="evenodd" clip-rule="evenodd" d="M9.73556 5.95442C9.94782 5.98799 10.3986 5.99793 10.5771 5.94199C10.6171 5.92956 10.6121 5.92583 10.6533 5.91339L10.923 5.81518C11.0279 5.7729 11.1352 5.71074 11.2251 5.64485C11.4187 5.50436 11.5435 5.3763 11.6859 5.17862C11.767 5.06922 11.8819 4.84543 11.9293 4.72234C11.9518 4.66267 11.9506 4.59304 11.9768 4.52591C12.0492 4.34066 12.0192 4.01244 12.0117 3.80979C12.0055 3.59595 11.8557 3.60589 11.6409 3.55243C11.5036 3.51762 10.928 3.41443 10.8031 3.40946L10.3461 3.39205C10.27 3.38708 10.2737 3.37589 10.19 3.3734C10.0003 3.36719 9.77177 3.39951 9.59322 3.40946C9.19117 3.42935 8.85904 3.49027 8.47448 3.58724C8.29468 3.63324 8.22601 3.61708 8.22601 3.98509C8.22601 4.39537 8.21851 4.30958 8.30592 4.67261C8.32589 4.75591 8.45075 5.01949 8.4932 5.08041C8.75041 5.44468 9.09752 5.7841 9.54702 5.89723C9.63317 5.91961 9.6569 5.94199 9.73556 5.95442Z" fill="#E6E7E8"/>
<path fill-rule="evenodd" clip-rule="evenodd" d="M6.9674 7.30463C6.98863 7.05846 6.98738 6.90927 6.96615 6.67056C6.95866 6.58602 6.885 6.34607 6.85628 6.29137C6.77262 6.1285 6.80509 6.16456 6.68397 5.95693L6.5741 5.80525C6.36184 5.55287 5.98601 5.26567 5.67386 5.19854C5.54151 5.16994 5.31302 5.48325 5.17817 5.62746C4.60506 6.24164 4.00074 7.34815 3.82844 8.1227C3.81346 8.18735 3.77475 8.27935 3.77475 8.33032C3.77475 8.39746 3.9508 8.52303 4.00324 8.5566C4.10063 8.62 4.17805 8.66973 4.29541 8.71946C4.44524 8.76795 4.97715 8.88855 5.14196 8.88855C5.57522 8.88855 5.98351 8.71698 6.3019 8.45713L6.47545 8.298L6.48419 8.28929L6.63153 8.10405C6.71144 7.99215 6.79135 7.87529 6.83505 7.74847C6.85877 7.68134 6.85253 7.71366 6.875 7.66642C6.89873 7.61793 6.96116 7.37425 6.9674 7.30463Z" fill="#E6E7E8"/>
<path fill-rule="evenodd" clip-rule="evenodd" d="M6.03595 11.1401C5.98725 11.1152 5.93731 11.0891 5.88237 11.0655C5.73254 11.017 5.20064 10.8964 5.03582 10.8964C4.90222 10.8964 4.74115 10.9225 4.63128 10.9462C4.39779 10.9971 3.97452 11.201 3.81969 11.3776C3.80845 11.39 3.77474 11.4459 3.77474 11.4547C3.77474 11.5081 3.8122 11.5902 3.82593 11.6486C3.90584 12.0104 4.10937 12.4878 4.27668 12.8222C4.28667 12.8421 4.29166 12.8583 4.2979 12.8707L4.53763 13.2947C4.66499 13.4725 4.75239 13.6403 4.90972 13.8318L5.25183 14.2421C5.6314 14.6834 5.61642 14.6424 6.00598 14.4447C6.09713 14.3987 6.37806 14.2035 6.44174 14.1277C6.46546 14.0991 6.46422 14.0929 6.49543 14.0593L6.58658 13.9586C6.64401 13.8877 6.69895 13.8131 6.7439 13.7311L6.81132 13.6067C6.98363 13.2437 7.0111 12.8881 6.9674 12.4816C6.95991 12.4057 6.90122 12.1708 6.875 12.1186C6.85627 12.08 6.86002 12.1011 6.84004 12.0502C6.82131 12.0017 6.8363 12.0104 6.80758 11.9594L6.53289 11.5516C6.40178 11.3937 6.33061 11.3527 6.17079 11.2333C6.12085 11.196 6.08839 11.1675 6.03595 11.1401Z" fill="#E6E7E8"/>
<path fill-rule="evenodd" clip-rule="evenodd" d="M8.9889 14.1699C8.70173 14.3862 8.57312 14.569 8.40706 14.8624L8.31716 15.07C8.26846 15.2155 8.22601 15.4206 8.22601 15.5909C8.22601 16.2151 8.20479 16.1417 8.74418 16.2611C9.35973 16.3978 9.57949 16.3419 9.98653 16.404C10.1451 16.4277 10.8993 16.3667 11.0778 16.3369C11.2851 16.3021 11.5348 16.2673 11.7396 16.2088C11.8594 16.1753 11.9568 16.179 11.998 16.0659C12.0305 15.9788 12.0317 15.4542 12.0055 15.3361L11.9106 15.0277C11.8944 14.9954 11.9031 15.024 11.8831 14.9693L11.7833 14.7542C11.7146 14.6224 11.6284 14.528 11.541 14.4185C11.4636 14.3228 11.4087 14.2917 11.3325 14.2246C11.1028 14.0195 10.6545 13.8243 10.3649 13.8106C10.1826 13.8019 9.79175 13.7907 9.65066 13.8504C9.58698 13.8777 9.57199 13.879 9.50582 13.8976C9.44339 13.915 9.42841 13.9312 9.36722 13.9523C9.26359 13.9896 9.19242 14.0319 9.10502 14.0916C9.06007 14.1226 9.03635 14.1338 8.99015 14.1699L8.9889 14.1699Z" fill="#E6E7E8"/>
<path fill-rule="evenodd" clip-rule="evenodd" d="M13.319 13.2599C13.4276 13.5458 13.3339 13.4451 13.5837 13.8517C13.6111 13.8977 13.6398 13.9313 13.6723 13.9723C13.7547 14.0705 13.7759 14.0991 13.8733 14.1911C14.0244 14.3303 14.2279 14.4373 14.4127 14.5268C14.6887 14.6611 14.7111 14.5541 14.8735 14.3739C15.0582 14.1687 15.1357 14.0966 15.318 13.8567L15.4153 13.7274C15.4503 13.6863 15.4753 13.654 15.5065 13.608C15.5402 13.5595 15.5627 13.5334 15.5926 13.4849L15.7138 13.291C15.7525 13.2388 15.7287 13.2686 15.7575 13.2127C15.7837 13.1629 15.8074 13.1405 15.8411 13.0858L15.9822 12.8073C16.0047 12.7676 16.0022 12.7825 16.0222 12.7427C16.0384 12.7091 16.0421 12.688 16.0584 12.6557C16.1283 12.5177 16.5491 11.538 16.4529 11.3962C16.4205 11.349 16.2731 11.2433 16.2194 11.2085C16.0434 11.0966 15.8186 10.9847 15.6101 10.9437C15.5027 10.9226 15.3542 10.8964 15.2193 10.8964C15.0258 10.8964 14.9334 10.8989 14.7386 10.9412C14.6687 10.9561 14.6412 10.9698 14.5763 10.9897C14.4939 11.0133 14.4727 11.027 14.4102 11.0506C14.2042 11.1277 13.9882 11.2819 13.8284 11.4298C13.7223 11.5293 13.6698 11.62 13.5949 11.722C13.4663 11.8948 13.5312 11.8189 13.4675 11.9271C13.2628 12.2752 13.1966 12.9416 13.319 13.2599Z" fill="#E6E7E8"/>
<path fill-rule="evenodd" clip-rule="evenodd" d="M14.3116 8.69337L14.5488 8.78786C14.7399 8.8438 14.8722 8.88856 15.1145 8.88856C15.5502 8.88856 15.9086 8.79283 16.2632 8.54915C16.5428 8.35769 16.5016 8.33655 16.3718 7.91508C16.3218 7.75346 16.1395 7.28475 16.0646 7.14053C16.0459 7.10447 16.0496 7.10945 16.0322 7.06718L15.8137 6.65565C15.7924 6.62333 15.7824 6.61711 15.7637 6.58355L15.6838 6.45425C15.5864 6.29759 15.5714 6.24662 15.4241 6.06759C15.2705 5.87986 15.2755 5.85996 15.0395 5.59515L14.7311 5.25574C14.6362 5.17865 14.5875 5.17492 14.424 5.25325C14.0931 5.4099 13.7922 5.60509 13.5899 5.92337C13.5088 6.05143 13.4301 6.19192 13.3739 6.33613C13.274 6.59349 13.2416 6.99879 13.2815 7.27604C13.3115 7.49361 13.3464 7.56821 13.4201 7.76589C13.4401 7.81811 13.4301 7.79821 13.4538 7.83675C13.4563 7.84048 13.4676 7.85665 13.475 7.86908C13.5287 7.96605 13.4838 7.91881 13.5799 8.04314C13.8296 8.37012 13.8759 8.45715 14.3116 8.69337Z" fill="#E6E7E8"/>
<path fill-rule="evenodd" clip-rule="evenodd" d="M17.8427 5.24695C18.0412 5.54906 18.1973 5.88101 18.3509 6.20675C18.5444 6.61951 18.8353 7.44753 18.9052 7.88888C18.9165 7.96348 18.9552 8.04554 18.9652 8.1077C18.9814 8.20343 18.9764 8.26311 18.9989 8.35387C19.0363 8.50181 19.0338 8.68457 19.0675 8.84371C19.0925 8.95685 19.1287 9.46037 19.1275 9.622L19.1287 10.1815C19.1287 10.2971 19.11 10.3319 19.11 10.4413C19.1088 10.6502 19.1013 10.7534 19.0651 10.9548C19.0313 11.1363 19.0413 11.2519 18.9951 11.4446C18.9752 11.5329 18.9814 11.6062 18.9627 11.692L18.8465 12.1346C18.8066 12.2764 18.7879 12.4343 18.7304 12.5772C18.6992 12.6543 18.6892 12.7078 18.6618 12.7873C18.5194 13.1914 18.3546 13.5843 18.1636 13.9672C18.0325 14.2308 17.7241 14.7704 17.5268 15.0078C17.4806 15.0625 17.4519 15.121 17.4132 15.1744L17.2896 15.3311C17.2046 15.4368 17.136 15.5462 17.0461 15.6469C16.9587 15.7451 16.8763 15.8532 16.7839 15.944C16.7576 15.9701 16.7377 15.9863 16.7139 16.0149C16.5878 16.1665 16.4418 16.3008 16.2944 16.4351L15.8924 16.7845L15.8836 16.7932L15.2069 17.3066C15.1657 17.3327 15.1619 17.3377 15.1232 17.3626C14.6625 17.6697 14.1806 17.9307 13.6674 18.1458L13.0581 18.3783C12.8845 18.4467 12.701 18.4815 12.6273 18.5076C12.5898 18.5201 12.5774 18.5337 12.5274 18.5474L12.3027 18.6021C12.2128 18.6332 12.1029 18.6369 11.9618 18.6829C11.9019 18.7016 11.787 18.7003 11.7133 18.714C11.6234 18.7314 11.591 18.7637 11.4861 18.7675C11.375 18.7712 11.3288 18.7737 11.2264 18.7874C10.9355 18.8247 11.0603 18.8321 10.7145 18.8358C10.6108 18.8371 10.5696 18.8557 10.4522 18.8545C10.1913 18.8532 9.41966 18.8582 9.21988 18.8247L8.73668 18.765C8.66426 18.7575 8.60183 18.7289 8.52691 18.7128C8.447 18.6954 8.35711 18.7028 8.27969 18.6779C8.20353 18.6531 8.16732 18.6369 8.06868 18.6282L7.40818 18.4479C7.18967 18.3597 6.87877 18.2702 6.61157 18.1583C5.91611 17.8711 5.46911 17.5876 4.86479 17.1761L3.95956 16.4363C3.81972 16.3282 3.64991 16.1616 3.54628 16.0273C3.50133 15.9676 3.46012 15.939 3.41143 15.8818L2.91699 15.2751L2.6373 14.8897C2.61483 14.8574 2.60359 14.8412 2.58111 14.8064C2.36636 14.4757 2.14785 14.1351 1.99427 13.7683C1.9718 13.7161 1.9693 13.7148 1.94933 13.6738C1.85568 13.491 1.76703 13.276 1.7021 13.082C1.68962 13.0447 1.68338 13.0372 1.66589 12.995C1.61096 12.8669 1.58349 12.7177 1.53105 12.5884C1.49858 12.5101 1.49983 12.4517 1.46987 12.3696L1.41618 12.162C1.39495 12.0625 1.36873 12.0625 1.35375 11.9444C1.34875 11.9034 1.34501 11.8673 1.33377 11.8251C1.27883 11.6261 1.30255 11.7132 1.26759 11.4894C1.25386 11.4036 1.22389 11.375 1.2164 11.2793C1.20891 11.1773 1.20392 11.1239 1.19642 11.0194C1.19143 10.9423 1.15897 10.8702 1.14898 10.8043C1.09778 10.455 1.12775 9.84703 1.12775 9.50015C1.12775 9.34599 1.12525 9.10977 1.15147 8.96555C1.16771 8.87976 1.19143 8.8263 1.19767 8.73182C1.20267 8.6423 1.20766 8.58387 1.21765 8.48938C1.22639 8.40235 1.2601 8.35262 1.27009 8.2631C1.28882 8.08532 1.31005 8.0704 1.34001 7.93115C1.35 7.89012 1.34875 7.86402 1.35749 7.80931C1.37123 7.72477 1.40244 7.69991 1.41867 7.6079C1.44115 7.48233 1.47111 7.39779 1.50358 7.27346L1.83445 6.3808C1.85069 6.34226 1.85318 6.31864 1.87066 6.27885L1.96181 6.08863C1.98179 6.05133 1.98179 6.04387 1.99927 6.00409C2.1054 5.75419 2.24899 5.52046 2.38384 5.28797L2.65104 4.87396C2.67975 4.8292 2.67351 4.83418 2.70847 4.79191L2.94196 4.48233C3.13674 4.22622 3.35524 3.98503 3.56126 3.73762C3.63867 3.64562 3.74231 3.55361 3.83096 3.46534C3.97205 3.32485 4.13062 3.2055 4.27546 3.06998C4.33039 3.02025 4.35911 2.99539 4.41655 2.94939L4.5951 2.81263L4.60509 2.80517L5.37547 2.2631C5.61645 2.13007 5.80498 2.00451 6.06969 1.87272C6.89626 1.46244 7.43565 1.31946 8.30591 1.09816C8.37958 1.07951 8.46449 1.08697 8.54065 1.06957C8.61931 1.05216 8.67675 1.02108 8.76914 1.01735C8.94894 1.01114 9.0713 0.981297 9.24985 0.955188C9.33101 0.942756 9.42091 0.948972 9.50581 0.948972C9.61694 0.948972 9.6519 0.930323 9.76802 0.930323H10.4697C10.5858 0.930323 10.6208 0.948972 10.7319 0.948972C11.0341 0.948972 11.0004 0.972594 11.2414 0.999946C11.34 1.00989 11.3949 1.01113 11.5023 1.01859C11.5972 1.02481 11.6322 1.05714 11.7283 1.0733C11.8032 1.08697 11.9044 1.082 11.9743 1.10687C12.0455 1.13298 12.1141 1.14789 12.2028 1.16033C12.2964 1.17276 12.3464 1.21006 12.42 1.22249C12.6535 1.26352 13.0556 1.39655 13.2791 1.48358C13.6099 1.61412 13.9408 1.74342 14.2555 1.90753C14.4365 2.00326 14.6275 2.09153 14.7936 2.20964C14.8361 2.23948 14.8311 2.23699 14.8798 2.2631C15.0583 2.36008 15.2094 2.49684 15.3779 2.605C15.4216 2.6336 15.4167 2.62614 15.4604 2.66219L16.3606 3.40691L16.3793 3.42307C16.5329 3.56231 16.7277 3.76 16.8563 3.92535L17.0548 4.14665C17.2334 4.35925 17.4344 4.64023 17.5942 4.8665C17.6204 4.90628 17.6242 4.90877 17.6504 4.95104C17.6878 5.01072 17.7241 5.06045 17.7628 5.1164C17.7865 5.14997 17.794 5.17359 17.814 5.20591C17.8289 5.23078 17.8264 5.22208 17.8427 5.24695ZM0.846782 9.90174C0.846782 10.1081 0.865511 10.271 0.864262 10.46C0.864262 10.6663 0.905466 10.7994 0.916703 10.9834C0.922946 11.0754 0.926692 11.1624 0.936681 11.2606C0.945421 11.3414 0.975387 11.3924 0.989122 11.4881C0.999111 11.5578 1.00286 11.6709 1.02408 11.7318C1.07028 11.8574 1.11898 12.1744 1.16268 12.3099C1.1839 12.3746 1.1839 12.3373 1.20388 12.4082C1.21761 12.4542 1.21387 12.479 1.22635 12.5263L1.37119 12.9577C1.38493 13.0049 1.39616 13.0111 1.41364 13.0559L1.4923 13.2548C1.50978 13.2959 1.50979 13.322 1.52602 13.3617L1.93556 14.2271C2.13908 14.651 2.48244 15.1595 2.76587 15.53C2.79584 15.5685 2.77336 15.5375 2.79958 15.5661L2.83954 15.6145L2.84703 15.6245L3.39766 16.2449C3.66361 16.5333 4.1618 16.9983 4.48144 17.2258C4.52265 17.2544 4.52514 17.2569 4.5601 17.2855C4.58757 17.3079 4.61005 17.3265 4.63877 17.3477C4.67373 17.375 4.68871 17.38 4.72367 17.4036C4.75239 17.4223 4.78235 17.4496 4.81357 17.4707L4.93968 17.5553C5.02957 17.6262 5.14195 17.6858 5.23934 17.7443C5.2743 17.7666 5.28928 17.7778 5.32549 17.7977L5.41164 17.8512C5.4516 17.8773 5.47407 17.8835 5.51528 17.9059L5.78872 18.0526C6.03344 18.1931 6.30064 18.3087 6.56285 18.4156L7.1859 18.6506C7.26456 18.6842 7.33698 18.6867 7.40065 18.7153C7.45809 18.7414 7.41064 18.7376 7.50054 18.7575C7.62166 18.7849 7.7103 18.8197 7.83766 18.8396C7.92756 18.852 7.97126 18.8918 8.07115 18.9042C8.20225 18.9191 8.20475 18.9254 8.29964 18.9552C8.3808 18.9813 8.47195 18.9739 8.54686 18.9888C8.63302 19.0062 8.6942 19.036 8.77161 19.0447L9.29227 19.1019L10.1188 19.133L10.9479 19.1044C11.0478 19.087 11.1027 19.0721 11.2051 19.0634C11.5385 19.036 11.3799 19.0584 11.6946 18.9913C11.7707 18.9751 11.8694 18.9813 11.943 18.9602C12.0292 18.9341 12.0804 18.9167 12.184 18.9042L12.626 18.7849C12.6697 18.7675 12.6822 18.7687 12.7371 18.7563L13.2753 18.576C13.314 18.5586 13.344 18.5549 13.3814 18.5424C13.6162 18.4654 13.8646 18.346 14.0819 18.2453L14.2717 18.1558C14.3129 18.1334 14.3141 18.1322 14.3653 18.1085C14.4852 18.0551 14.7324 17.9196 14.8298 17.8562L15.4379 17.4658L16.2607 16.8193L16.2694 16.8118C16.2881 16.7957 16.2894 16.7957 16.3081 16.7795C16.3618 16.736 16.398 16.6937 16.453 16.644L16.4892 16.6104C16.6015 16.5085 16.7177 16.4065 16.8188 16.2934C16.8488 16.2586 16.8488 16.2499 16.88 16.215L17.0897 15.9875C17.2683 15.7874 17.4481 15.5835 17.6004 15.3609L18.216 14.4198C18.4482 14.0194 18.6343 13.5905 18.8053 13.1579L18.9789 12.632C18.9926 12.5884 19.0076 12.571 19.0188 12.5337L19.1736 11.9718C19.1824 11.9233 19.1774 11.8897 19.1849 11.8425C19.1899 11.8089 19.2049 11.7753 19.2173 11.7356C19.2498 11.6361 19.2398 11.615 19.2548 11.4931C19.2648 11.4111 19.2948 11.3452 19.311 11.2532C19.3272 11.1686 19.3172 11.0804 19.3297 10.9933L19.3709 10.7534C19.4046 10.496 19.4046 9.52255 19.3909 9.29005L19.3047 8.50306C19.2885 8.42225 19.261 8.3576 19.2536 8.27555C19.2411 8.15371 19.2498 8.12138 19.2099 8.02068C19.1724 7.92246 19.1899 7.87273 19.1674 7.78446C19.1424 7.68127 19.1212 7.67381 19.1075 7.5644C19.0925 7.4438 19.0013 7.24985 18.9714 7.12428L18.8303 6.70779C18.8028 6.61827 18.7828 6.58968 18.7529 6.50389C18.6343 6.16821 18.4594 5.84372 18.2996 5.52544C18.2384 5.4036 18.1785 5.27679 18.0986 5.16614L17.7627 4.64521C17.6104 4.42391 17.4431 4.20758 17.272 3.99996L17.0123 3.70033C16.6265 3.30124 16.2357 2.91458 15.795 2.57393L15.6526 2.47198C15.5852 2.42971 15.5515 2.39241 15.4915 2.35138C15.4566 2.32776 15.4429 2.32155 15.4066 2.29668L15.0608 2.06543C14.8548 1.93862 14.64 1.83667 14.434 1.71235C14.3903 1.68624 14.3753 1.68251 14.3291 1.66013L13.2416 1.19017C13.2029 1.17277 13.1742 1.16904 13.133 1.15785L12.9219 1.08947C12.8533 1.07455 12.8695 1.07455 12.8171 1.05341C12.7421 1.02109 12.234 0.886817 12.1353 0.87687C12.0292 0.865681 12.008 0.837086 11.9143 0.817194C11.8207 0.797301 11.7495 0.808491 11.6521 0.782382C11.5685 0.761247 11.5135 0.740112 11.4161 0.737625C11.2189 0.733895 11.094 0.70157 10.9179 0.675461C10.7382 0.64811 10.5334 0.685408 10.3573 0.658056C10.1838 0.631947 9.97151 0.660542 9.82044 0.669245C9.61941 0.679191 9.44711 0.660543 9.26107 0.686651C9.16992 0.699084 9.10749 0.711516 9.00261 0.726435C8.93643 0.735138 8.81657 0.731408 8.7404 0.745084C8.6555 0.760003 8.58682 0.793572 8.50192 0.803518C8.37456 0.81968 8.36707 0.804761 8.26094 0.843302C8.1648 0.878114 8.13359 0.864438 8.02496 0.88806C7.92507 0.909196 7.92507 0.934061 7.80645 0.94898C7.72529 0.958926 7.35446 1.07455 7.24833 1.10812L6.94243 1.2225C6.89373 1.24115 6.86751 1.24239 6.82381 1.26228C6.78385 1.27969 6.77886 1.28715 6.72517 1.30331C6.66524 1.32072 6.67398 1.31201 6.62029 1.33936C6.58283 1.35801 6.6103 1.34807 6.57534 1.36299L6.03095 1.60667C5.71131 1.7484 5.41789 1.93489 5.12322 2.11641L4.86601 2.27927C4.66249 2.40111 4.40279 2.60998 4.21799 2.76788C4.18678 2.79398 4.17554 2.81015 4.14558 2.83501C4.01572 2.93945 3.88087 3.05383 3.76351 3.1707L3.72855 3.20551C3.71231 3.22043 3.70732 3.22291 3.69109 3.23907C3.66362 3.26518 3.64864 3.28135 3.62117 3.3087C3.34523 3.58346 3.08177 3.86692 2.83955 4.17028L2.68722 4.36796C2.66225 4.40277 2.65101 4.40899 2.62479 4.44628L2.3913 4.78818C2.22149 5.04927 2.06292 5.31781 1.91933 5.59258C1.88562 5.65598 1.85566 5.70696 1.82319 5.77658L1.55724 6.36713C1.53352 6.41562 1.53227 6.4007 1.51354 6.46286C1.49731 6.51632 1.50105 6.51632 1.47483 6.56357C1.40741 6.68789 1.38494 6.852 1.325 6.9726C1.26507 7.09196 1.24135 7.29461 1.18891 7.41396C1.16269 7.47488 1.15395 7.56688 1.13397 7.63899C1.10775 7.7397 1.08652 7.72105 1.07404 7.85781C1.07029 7.89759 1.06155 7.94981 1.04906 7.99084C0.987883 8.18354 1.01785 8.17484 0.982889 8.34268C0.966657 8.42225 0.937939 8.46452 0.934194 8.57393C0.930448 8.74177 0.891741 8.91955 0.869267 9.08491L0.846792 9.62076C0.845544 9.714 0.846792 9.80849 0.846792 9.90049L0.846782 9.90174Z" fill="#E6E7E8"/>
<path d="M32.2914 7.33073H33.4239H33.6524C34.3079 7.33073 34.635 7.61047 34.635 8.1687C34.635 8.51805 34.5027 8.81395 34.2367 9.05514C33.9695 9.29758 33.6399 9.41942 33.2478 9.41942H33.0193H31.4399L29.7343 13.6067C28.5531 16.4986 26.8026 17.9433 24.4827 17.9433C23.2715 17.9433 22.2677 17.5554 21.4698 16.7771C20.6757 15.9975 20.2774 15.0191 20.2774 13.8343C20.2774 12.9142 20.5147 12.034 20.9841 11.1948C21.4548 10.3531 22.1154 9.63078 22.9631 9.02532C23.6848 8.51806 24.5214 8.11773 25.4803 7.81935C26.4367 7.52096 27.3807 7.3755 28.3134 7.3755L29.552 7.33945L29.9378 7.33074L31.6221 3.10737L31.7183 2.86245C31.8531 2.50066 32.0242 2.25947 32.234 2.14012C32.4412 2.02076 32.7921 1.96108 33.2828 1.96108H37.789C38.6005 1.96108 39.0088 2.24704 39.0088 2.81769C39.0088 3.15462 38.874 3.4443 38.6043 3.68549C38.3346 3.92793 38.0075 4.04977 37.6204 4.04977H37.3844H33.6336L32.2914 7.33073ZM29.0838 9.41942H28.6105C26.8775 9.41942 25.4928 9.81353 24.4552 10.598C23.2953 11.4783 22.7172 12.4729 22.7172 13.5806C22.7172 14.1737 22.9007 14.6722 23.2653 15.075C23.6311 15.4779 24.0869 15.678 24.6325 15.678C25.8974 15.678 26.9349 14.6784 27.7503 12.6793L29.0838 9.41942ZM38.5443 11.9893H39.5357C40.2736 11.9893 40.642 12.2491 40.642 12.7688C40.642 13.1231 40.5134 13.4004 40.2524 13.598C39.9915 13.7982 39.6256 13.8964 39.1587 13.8964H37.7615C37.2458 13.8964 36.8413 13.792 36.5441 13.5831C36.2482 13.3705 36.1009 13.0871 36.1009 12.724C36.1009 12.5326 36.1645 12.2876 36.2869 11.9893L37.7353 8.44097L37.8302 8.19604C38.0999 7.53587 38.5356 7.20765 39.1312 7.20765C39.3772 7.20765 39.5907 7.28846 39.7705 7.45257C39.9465 7.61668 40.0364 7.81063 40.0364 8.03691C40.0364 8.22588 39.959 8.50935 39.8004 8.89352L38.5443 11.9893ZM39.7005 4.42025C40.0402 4.42025 40.3273 4.5396 40.5646 4.77582C40.8006 5.0108 40.9204 5.298 40.9204 5.63492C40.9204 5.97185 40.8006 6.25904 40.5646 6.49402C40.3273 6.73024 40.0402 6.84959 39.7005 6.84959C39.3622 6.84959 39.075 6.73024 38.8378 6.49402C38.6005 6.25904 38.4807 5.97185 38.4807 5.63492C38.4807 5.298 38.6005 5.0108 38.8378 4.77582C39.075 4.5396 39.3622 4.42025 39.7005 4.42025ZM43.3302 11.9893H44.2504C44.9933 11.9893 45.3654 12.2491 45.3654 12.7688C45.3654 13.1231 45.2368 13.4004 44.9758 13.598C44.7149 13.7982 44.3491 13.8964 43.8821 13.8964H42.3026C41.8681 13.8964 41.526 13.7945 41.2738 13.5893C41.0228 13.3854 40.8967 13.1119 40.8967 12.7688C40.8967 12.5897 40.9803 12.2876 41.1514 11.8674L44.6974 3.17574L44.796 2.93952C45.0632 2.28556 45.494 1.96107 46.0846 1.96107C46.3306 1.96107 46.5403 2.04188 46.7139 2.20599C46.8849 2.3701 46.9723 2.56405 46.9723 2.79032C46.9723 2.96687 46.9274 3.1633 46.84 3.38461L46.7439 3.62331L43.3302 11.9893ZM56.3193 11.9893H57.3619C58.1023 11.9893 58.4706 12.2491 58.4706 12.7688C58.4706 13.1231 58.342 13.4004 58.0811 13.598C57.8201 13.7982 57.458 13.8964 56.9936 13.8964H55.2131C54.826 13.8964 54.5114 13.7945 54.2716 13.5893C54.0319 13.3854 53.912 13.1169 53.912 12.7862C53.912 12.5599 53.9894 12.2491 54.148 11.8612L54.9758 9.85829C55.0208 9.74142 55.0445 9.6345 55.0445 9.53255C55.0445 9.15336 54.8535 8.96562 54.4664 8.96562C54.1667 8.96562 53.8696 9.0999 53.5787 9.36844C53.2852 9.63699 53.0518 9.99256 52.8744 10.4339L51.8918 12.8459C51.5709 13.6279 51.1002 14.0183 50.4859 14.0183C50.2462 14.0183 50.0426 13.9412 49.8716 13.7833C49.7005 13.6254 49.6169 13.4401 49.6169 13.2213C49.6169 13.0547 49.6618 12.8546 49.748 12.6283L49.8441 12.3921L50.8392 9.95402C50.9266 9.73893 50.9716 9.56861 50.9716 9.44677C50.9716 9.31747 50.9117 9.20806 50.7943 9.1086C50.6769 9.01411 50.5396 8.96562 50.3835 8.96562C49.7517 8.96562 49.251 9.41941 48.8814 10.3295L47.8539 12.8396C47.5305 13.6254 47.066 14.0183 46.4567 14.0183C46.2169 14.0183 46.0109 13.9412 45.8361 13.7858C45.6663 13.6341 45.5789 13.4451 45.5789 13.2213C45.5789 13.0485 45.6239 12.8484 45.7113 12.6283L45.8062 12.3921L47.5542 8.10902C47.8002 7.50977 48.1685 7.20765 48.6604 7.20765C49.1699 7.20765 49.487 7.44636 49.6106 7.92378C50.0064 7.58685 50.3298 7.36306 50.5783 7.25241C50.828 7.14176 51.1327 7.08581 51.496 7.08581C52.2814 7.08581 52.8682 7.42523 53.2615 8.10902C53.9183 7.42523 54.655 7.08581 55.4765 7.08581C56.0371 7.08581 56.5079 7.2462 56.8849 7.57193C57.2633 7.89394 57.4518 8.29178 57.4518 8.76298C57.4518 9.06137 57.3894 9.36597 57.2595 9.68176L56.3193 11.9893ZM74.294 9.41942L73.3201 11.8077H74.8397H75.0669C75.7237 11.8077 76.0508 12.0937 76.0508 12.6643C76.0508 13.0485 75.906 13.3506 75.6213 13.5682C75.3341 13.7858 74.9358 13.8964 74.4251 13.8964H72.6271C72.0578 13.8964 71.6083 13.7684 71.2749 13.5085C70.9428 13.2487 70.7742 12.8931 70.7742 12.4455C70.7742 12.1658 70.8404 11.8612 70.9753 11.5355L71.1163 11.1948L71.8443 9.41943H69.0424L67.3306 13.6067C66.1557 16.4986 64.3989 17.9433 62.0653 17.9433C60.8242 17.9433 59.7991 17.5591 58.9963 16.7858C58.1897 16.0125 57.7876 15.0303 57.7876 13.8343C57.7876 12.9142 58.0223 12.034 58.4893 11.1948C58.96 10.3531 59.6193 9.63078 60.4733 9.02531C61.1963 8.51806 62.0328 8.11773 62.9917 7.81934C63.9469 7.52096 64.8884 7.3755 65.8111 7.3755L67.0584 7.33944L67.4442 7.33074L69.1585 3.14218L69.2547 2.88856C69.5493 2.18735 70.0101 1.838 70.6431 1.838C70.9303 1.838 71.17 1.92503 71.3623 2.09535C71.5571 2.26817 71.6532 2.47703 71.6532 2.72196C71.6532 2.91839 71.5721 3.22051 71.4073 3.62333L69.8965 7.33075H72.6958L74.3927 3.17576L74.4975 2.91343C74.7972 2.19606 75.2654 1.83801 75.9035 1.83801C76.1794 1.83801 76.4129 1.92504 76.6052 2.10158C76.7999 2.27439 76.8961 2.49197 76.8961 2.74932C76.8961 2.94576 76.8112 3.25657 76.6414 3.67431L75.1481 7.33075H75.8223H76.0595C76.71 7.33075 77.0334 7.6167 77.0334 8.18736C77.0334 8.57153 76.8898 8.87365 76.6052 9.09122C76.3167 9.30879 75.9209 9.41944 75.4177 9.41944L74.294 9.41942ZM66.5939 9.41942H66.1195C64.3877 9.41942 63.0042 9.81353 61.9667 10.598C61.4273 11.0071 61.004 11.4758 60.6931 12.0067C60.3834 12.5388 60.2274 13.0572 60.2274 13.5707C60.2274 14.1774 60.4134 14.6809 60.783 15.0788C61.1513 15.4779 61.6158 15.678 62.1764 15.678C63.4175 15.678 64.4439 14.6784 65.2592 12.6793L66.5939 9.41942ZM81.4335 7.08581C82.2813 7.08581 82.9805 7.35435 83.5286 7.89144C84.0768 8.42605 84.3502 9.1086 84.3502 9.93537C84.3502 10.5595 84.2066 11.1774 83.9182 11.7928C83.6335 12.4095 83.2614 12.8993 82.8032 13.2661C82.501 13.506 82.1851 13.6701 81.8593 13.7621C81.5359 13.8517 81.0801 13.8964 80.492 13.8964C79.5394 13.8964 78.8951 13.7833 78.5617 13.5558C77.7764 13.0187 77.3843 12.2255 77.3843 11.1774C77.3843 10.0697 77.7851 9.11234 78.5892 8.30048C79.3895 7.49112 80.3397 7.08581 81.4335 7.08581ZM81.2237 8.94822C80.7892 8.94822 80.3934 9.15957 80.0363 9.58601C79.6792 10.01 79.4994 10.4787 79.4994 10.9922C79.4994 11.6697 79.8802 12.0067 80.6419 12.0067C81.0889 12.0067 81.4297 11.8699 81.6732 11.5951C82.0715 11.1476 82.27 10.6341 82.27 10.0585C82.27 9.72651 82.1739 9.45796 81.9791 9.25283C81.7868 9.04893 81.5359 8.94822 81.2237 8.94822ZM91.0039 11.9893H92.0228C92.4273 11.9893 92.712 12.0489 92.8831 12.1683C93.0541 12.2876 93.1378 12.4841 93.1378 12.7588C93.1378 13.1144 93.0092 13.3917 92.7482 13.5955C92.4873 13.7945 92.1214 13.8964 91.6545 13.8964H90.0812C89.5893 13.8964 89.2622 13.705 89.0973 13.3258C88.7764 13.705 88.3719 13.8964 87.8862 13.8964H86.6039C86.0882 13.8964 85.66 13.7348 85.3203 13.4153C84.982 13.0933 84.8109 12.6905 84.8109 12.2006C84.8109 11.9209 84.8858 11.5951 85.0394 11.2222L86.2343 8.30048C86.5677 7.49111 87.0259 7.0858 87.6053 7.0858C87.8562 7.0858 88.0697 7.16537 88.2458 7.327C88.4231 7.48489 88.5105 7.68257 88.5105 7.91506C88.5105 8.09161 88.4618 8.29177 88.3694 8.51805L88.2733 8.75427L87.3506 11.0008L87.2544 11.2644C87.2007 11.4161 87.1708 11.5292 87.1645 11.6038C87.152 11.8674 87.3231 11.9979 87.6739 11.9979C88.3994 11.9979 88.8813 11.7058 89.1248 11.1239L90.2211 8.43101C90.5482 7.61667 91.0127 7.20765 91.6095 7.20765C91.8555 7.20765 92.0653 7.28846 92.2413 7.45257C92.4186 7.61668 92.506 7.81063 92.506 8.0369C92.506 8.21966 92.4311 8.49691 92.2775 8.87611L91.0039 11.9893ZM96.3866 9.59597L96.2193 9.99505C95.9609 10.5719 95.595 10.8616 95.1218 10.8616C94.8821 10.8616 94.6698 10.7771 94.4775 10.613C94.289 10.4464 94.1929 10.2549 94.1929 10.0398C94.1929 9.83467 94.2765 9.56613 94.4476 9.22547L95.6138 6.867C95.9009 6.3038 96.258 6.02034 96.6863 6.02034C96.9148 6.02034 97.1096 6.09493 97.2744 6.24412C97.4392 6.38959 97.5204 6.56862 97.5204 6.77251C97.5204 6.82224 97.5016 6.93911 97.4692 7.11192C97.4454 7.24122 97.433 7.35436 97.433 7.45258C97.433 7.81934 97.5703 8.19605 97.8462 8.58022L98.3444 9.27272C98.8539 9.97765 99.1086 10.6577 99.1086 11.3179C99.1086 12.0514 98.8326 12.6643 98.2845 13.1567C97.7326 13.649 97.0496 13.8964 96.2281 13.8964H94.3939C93.6497 13.8964 93.2789 13.6403 93.2789 13.1268C93.2789 12.7713 93.41 12.494 93.6747 12.2901C93.9381 12.0912 94.3002 11.9893 94.7622 11.9893H95.7811C96.5939 11.9893 97.0009 11.6934 97.0009 11.1053C97.0009 10.8914 96.926 10.6366 96.7737 10.3444L96.3866 9.59597ZM101.85 11.3353C101.85 11.7717 102.18 11.9893 102.843 11.9893H105.45C106.188 11.9893 106.556 12.2491 106.556 12.7688C106.556 13.1231 106.428 13.4004 106.167 13.598C105.906 13.7982 105.54 13.8964 105.073 13.8964H102.588C101.662 13.8964 100.958 13.6701 100.475 13.2164C99.9926 12.7588 99.7491 12.0962 99.7491 11.2222C99.7491 10.097 100.13 9.12725 100.894 8.30919C101.659 7.49485 102.57 7.08582 103.622 7.08582C104.39 7.08582 105.007 7.28598 105.471 7.68507C105.936 8.0854 106.171 8.61006 106.171 9.26402C106.171 10.0498 105.85 10.6341 105.205 11.0133C104.848 11.2284 104.315 11.3353 103.605 11.3353L101.85 11.3353ZM102.27 9.74516H103.235C103.862 9.74516 104.168 9.60715 104.15 9.33239C104.132 9.0253 103.931 8.8699 103.545 8.8699C103.005 8.8699 102.582 9.16331 102.27 9.74516Z" fill="#E6E7E8"/>
</svg>
