<svg width="32" height="32" viewBox="0 0 32 32" fill="none" xmlns="http://www.w3.org/2000/svg">
<g clip-path="url(#clip0_1_17)">
<path d="M16 31.1567C24.3708 31.1567 31.1567 24.3708 31.1567 16C31.1567 7.62919 24.3708 0.8433 16 0.8433C7.62919 0.8433 0.843307 7.62919 0.843307 16C0.843307 24.3708 7.62919 31.1567 16 31.1567Z" fill="#E6E7E8"/>
<path d="M15.7084 15.1697C19.0567 15.1697 21.771 12.4553 21.771 9.10704C21.771 5.75876 19.0567 3.04443 15.7084 3.04443C12.3601 3.04443 9.6458 5.75876 9.6458 9.10704C9.6458 12.4553 12.3601 15.1697 15.7084 15.1697Z" fill="#606062"/>
<path fill-rule="evenodd" clip-rule="evenodd" d="M15.4555 16.8304C25.2355 16.8209 25.3796 22.2059 25.3796 24.9497C25.3796 27.5813 6.18102 27.403 6.03692 24.9497C5.87628 22.2106 6.90155 16.8375 15.4555 16.8304Z" fill="#606062"/>
</g>
<defs>
<clipPath id="clip0_1_17">
<rect width="32" height="32" fill="white"/>
</clipPath>
</defs>
</svg>
